<svg data-slug-id="cloud14" viewBox="0 0 48 49" xmlns="http://www.w3.org/2000/svg">
<path d="M47.7137 30.034C47.739 29.9245 47.7558 29.8234 47.7811 29.7139C47.9074 29.0571 47.9747 28.375 47.9747 27.6761C47.9747 21.6971 43.1251 16.8634 37.164 16.8634C36.3305 16.8634 35.5138 16.9561 34.7476 17.1413C32.2806 13.2508 27.9361 10.6655 22.9854 10.6655C15.2984 10.6655 9.0763 16.9055 9.0763 24.5771C9.0763 24.7708 9.0763 24.9561 9.08472 25.1413C8.3859 24.9055 7.63655 24.7708 6.85353 24.7708C3.06473 24.7708 0 27.8361 0 31.6255C0 35.1792 2.70268 38.1013 6.17155 38.4382L37.164 38.4971C41.2391 38.4971 44.7753 36.2487 46.6192 32.9392C46.6697 32.8466 46.7202 32.7539 46.7707 32.6529C47.0486 32.0803 47.4611 31.1876 47.7137 30.034Z" fill="#0078D4"/>
</svg>
